<!-- Black svg -->

<!-- <svg width="220" height="47" viewBox="0 0 220 47" fill="none" xmlns="http://www.w3.org/2000/svg">
<path d="M5.78502 46V39.7H18.448C20.674 39.7 22.396 39.007 23.614 37.621C24.832 36.235 25.441 34.639 25.441 32.833C25.441 31.615 25.168 30.481 24.622 29.431C24.076 28.381 23.278 27.541 22.228 26.911C21.178 26.281 19.918 25.966 18.448 25.966H5.78502V19.666H17.377C19.267 19.666 20.779 19.183 21.913 18.217C23.047 17.251 23.614 15.823 23.614 13.933C23.614 12.043 23.047 10.615 21.913 9.649C20.779 8.683 19.267 8.2 17.377 8.2H5.78502V1.9H17.566C20.548 1.9 23.026 2.446 25 3.538C26.974 4.63 28.444 6.037 29.41 7.759C30.376 9.481 30.859 11.329 30.859 13.303C30.859 15.613 30.208 17.65 28.906 19.414C27.646 21.178 25.777 22.606 23.299 23.698L23.866 21.43C26.638 22.564 28.801 24.16 30.355 26.218C31.909 28.276 32.686 30.691 32.686 33.463C32.686 35.731 32.119 37.81 30.985 39.7C29.893 41.59 28.255 43.123 26.071 44.299C23.929 45.433 21.283 46 18.133 46H5.78502ZM0.80802 46V1.9H8.05302V46H0.80802ZM39.0534 46V0.639998H45.9834V46H39.0534ZM67.556 46.63C64.616 46.63 61.949 45.937 59.555 44.551C57.161 43.123 55.25 41.212 53.822 38.818C52.436 36.424 51.743 33.757 51.743 30.817C51.743 27.877 52.436 25.231 53.822 22.879C55.25 20.527 57.161 18.658 59.555 17.272C61.949 15.844 64.616 15.13 67.556 15.13C70.538 15.13 73.226 15.823 75.62 17.209C78.014 18.595 79.904 20.485 81.29 22.879C82.718 25.231 83.432 27.877 83.432 30.817C83.432 33.757 82.718 36.424 81.29 38.818C79.904 41.212 78.014 43.123 75.62 44.551C73.226 45.937 70.538 46.63 67.556 46.63ZM67.556 39.952C69.278 39.952 70.79 39.574 72.092 38.818C73.436 38.02 74.465 36.928 75.179 35.542C75.935 34.156 76.313 32.581 76.313 30.817C76.313 29.053 75.935 27.499 75.179 26.155C74.423 24.811 73.394 23.761 72.092 23.005C70.79 22.207 69.278 21.808 67.556 21.808C65.876 21.808 64.364 22.207 63.02 23.005C61.718 23.761 60.689 24.811 59.933 26.155C59.219 27.499 58.862 29.053 58.862 30.817C58.862 32.581 59.219 34.156 59.933 35.542C60.689 36.928 61.718 38.02 63.02 38.818C64.364 39.574 65.876 39.952 67.556 39.952ZM103.055 46.63C100.115 46.63 97.4481 45.937 95.0541 44.551C92.6601 43.123 90.7491 41.212 89.3211 38.818C87.9351 36.424 87.2421 33.757 87.2421 30.817C87.2421 27.877 87.9351 25.231 89.3211 22.879C90.7491 20.527 92.6601 18.658 95.0541 17.272C97.4481 15.844 100.115 15.13 103.055 15.13C106.037 15.13 108.725 15.823 111.119 17.209C113.513 18.595 115.403 20.485 116.789 22.879C118.217 25.231 118.931 27.877 118.931 30.817C118.931 33.757 118.217 36.424 116.789 38.818C115.403 41.212 113.513 43.123 111.119 44.551C108.725 45.937 106.037 46.63 103.055 46.63ZM103.055 39.952C104.777 39.952 106.289 39.574 107.591 38.818C108.935 38.02 109.964 36.928 110.678 35.542C111.434 34.156 111.812 32.581 111.812 30.817C111.812 29.053 111.434 27.499 110.678 26.155C109.922 24.811 108.893 23.761 107.591 23.005C106.289 22.207 104.777 21.808 103.055 21.808C101.375 21.808 99.8631 22.207 98.5191 23.005C97.2171 23.761 96.1881 24.811 95.4321 26.155C94.7181 27.499 94.3611 29.053 94.3611 30.817C94.3611 32.581 94.7181 34.156 95.4321 35.542C96.1881 36.928 97.2171 38.02 98.5191 38.818C99.8631 39.574 101.375 39.952 103.055 39.952ZM137.357 46.63C134.627 46.63 132.149 45.937 129.923 44.551C127.739 43.165 125.996 41.296 124.694 38.944C123.434 36.55 122.804 33.883 122.804 30.943C122.804 27.961 123.434 25.294 124.694 22.942C125.996 20.548 127.739 18.658 129.923 17.272C132.149 15.844 134.627 15.13 137.357 15.13C139.667 15.13 141.704 15.634 143.468 16.642C145.274 17.608 146.702 18.952 147.752 20.674C148.802 22.396 149.327 24.349 149.327 26.533V35.227C149.327 37.411 148.802 39.364 147.752 41.086C146.744 42.808 145.337 44.173 143.531 45.181C141.725 46.147 139.667 46.63 137.357 46.63ZM138.491 40.078C140.213 40.078 141.704 39.7 142.964 38.944C144.266 38.146 145.274 37.054 145.988 35.668C146.702 34.282 147.059 32.686 147.059 30.88C147.059 29.074 146.702 27.478 145.988 26.092C145.274 24.706 144.266 23.635 142.964 22.879C141.704 22.081 140.213 21.682 138.491 21.682C136.811 21.682 135.32 22.081 134.018 22.879C132.758 23.635 131.75 24.706 130.994 26.092C130.28 27.478 129.923 29.074 129.923 30.88C129.923 32.686 130.28 34.282 130.994 35.668C131.75 37.054 132.758 38.146 134.018 38.944C135.32 39.7 136.811 40.078 138.491 40.078ZM153.548 46H146.618V37.873L147.815 30.502L146.618 23.194V0.639998H153.548V46ZM166.531 46.63C165.187 46.63 164.074 46.189 163.192 45.307C162.352 44.383 161.932 43.27 161.932 41.968C161.932 40.624 162.352 39.511 163.192 38.629C164.074 37.747 165.187 37.306 166.531 37.306C167.875 37.306 168.967 37.747 169.807 38.629C170.689 39.511 171.13 40.624 171.13 41.968C171.13 43.27 170.689 44.383 169.807 45.307C168.967 46.189 167.875 46.63 166.531 46.63Z" fill="black"/>
<path d="M191.922 46.63C189.36 46.63 187.071 46.063 185.055 44.929C183.081 43.795 181.527 42.241 180.393 40.267C179.301 38.251 178.755 35.941 178.755 33.337V15.76H185.685V33.022C185.685 34.492 185.916 35.752 186.378 36.802C186.882 37.81 187.596 38.587 188.52 39.133C189.486 39.679 190.62 39.952 191.922 39.952C193.938 39.952 195.471 39.364 196.521 38.188C197.613 36.97 198.159 35.248 198.159 33.022V15.76H205.089V33.337C205.089 35.983 204.522 38.314 203.388 40.33C202.296 42.304 200.763 43.858 198.789 44.992C196.815 46.084 194.526 46.63 191.922 46.63ZM212.12 46V15.76H219.05V46H212.12ZM215.585 10.216C214.409 10.216 213.422 9.817 212.624 9.019C211.868 8.221 211.49 7.234 211.49 6.058C211.49 4.882 211.868 3.895 212.624 3.097C213.422 2.299 214.409 1.9 215.585 1.9C216.803 1.9 217.79 2.299 218.546 3.097C219.302 3.895 219.68 4.882 219.68 6.058C219.68 7.234 219.302 8.221 218.546 9.019C217.79 9.817 216.803 10.216 215.585 10.216Z" fill="#B92727"/>
</svg> -->

<!-- white svg -->

<svg width="220" height="47" viewBox="0 0 220 47" fill="none" xmlns="http://www.w3.org/2000/svg">
<path d="M5.78502 46V39.7H18.448C20.674 39.7 22.396 39.007 23.614 37.621C24.832 36.235 25.441 34.639 25.441 32.833C25.441 31.615 25.168 30.481 24.622 29.431C24.076 28.381 23.278 27.541 22.228 26.911C21.178 26.281 19.918 25.966 18.448 25.966H5.78502V19.666H17.377C19.267 19.666 20.779 19.183 21.913 18.217C23.047 17.251 23.614 15.823 23.614 13.933C23.614 12.043 23.047 10.615 21.913 9.649C20.779 8.683 19.267 8.2 17.377 8.2H5.78502V1.9H17.566C20.548 1.9 23.026 2.446 25 3.538C26.974 4.63 28.444 6.037 29.41 7.759C30.376 9.481 30.859 11.329 30.859 13.303C30.859 15.613 30.208 17.65 28.906 19.414C27.646 21.178 25.777 22.606 23.299 23.698L23.866 21.43C26.638 22.564 28.801 24.16 30.355 26.218C31.909 28.276 32.686 30.691 32.686 33.463C32.686 35.731 32.119 37.81 30.985 39.7C29.893 41.59 28.255 43.123 26.071 44.299C23.929 45.433 21.283 46 18.133 46H5.78502ZM0.80802 46V1.9H8.05302V46H0.80802ZM39.0534 46V0.639998H45.9834V46H39.0534ZM67.556 46.63C64.616 46.63 61.949 45.937 59.555 44.551C57.161 43.123 55.25 41.212 53.822 38.818C52.436 36.424 51.743 33.757 51.743 30.817C51.743 27.877 52.436 25.231 53.822 22.879C55.25 20.527 57.161 18.658 59.555 17.272C61.949 15.844 64.616 15.13 67.556 15.13C70.538 15.13 73.226 15.823 75.62 17.209C78.014 18.595 79.904 20.485 81.29 22.879C82.718 25.231 83.432 27.877 83.432 30.817C83.432 33.757 82.718 36.424 81.29 38.818C79.904 41.212 78.014 43.123 75.62 44.551C73.226 45.937 70.538 46.63 67.556 46.63ZM67.556 39.952C69.278 39.952 70.79 39.574 72.092 38.818C73.436 38.02 74.465 36.928 75.179 35.542C75.935 34.156 76.313 32.581 76.313 30.817C76.313 29.053 75.935 27.499 75.179 26.155C74.423 24.811 73.394 23.761 72.092 23.005C70.79 22.207 69.278 21.808 67.556 21.808C65.876 21.808 64.364 22.207 63.02 23.005C61.718 23.761 60.689 24.811 59.933 26.155C59.219 27.499 58.862 29.053 58.862 30.817C58.862 32.581 59.219 34.156 59.933 35.542C60.689 36.928 61.718 38.02 63.02 38.818C64.364 39.574 65.876 39.952 67.556 39.952ZM103.055 46.63C100.115 46.63 97.4481 45.937 95.0541 44.551C92.6601 43.123 90.7491 41.212 89.3211 38.818C87.9351 36.424 87.2421 33.757 87.2421 30.817C87.2421 27.877 87.9351 25.231 89.3211 22.879C90.7491 20.527 92.6601 18.658 95.0541 17.272C97.4481 15.844 100.115 15.13 103.055 15.13C106.037 15.13 108.725 15.823 111.119 17.209C113.513 18.595 115.403 20.485 116.789 22.879C118.217 25.231 118.931 27.877 118.931 30.817C118.931 33.757 118.217 36.424 116.789 38.818C115.403 41.212 113.513 43.123 111.119 44.551C108.725 45.937 106.037 46.63 103.055 46.63ZM103.055 39.952C104.777 39.952 106.289 39.574 107.591 38.818C108.935 38.02 109.964 36.928 110.678 35.542C111.434 34.156 111.812 32.581 111.812 30.817C111.812 29.053 111.434 27.499 110.678 26.155C109.922 24.811 108.893 23.761 107.591 23.005C106.289 22.207 104.777 21.808 103.055 21.808C101.375 21.808 99.8631 22.207 98.5191 23.005C97.2171 23.761 96.1881 24.811 95.4321 26.155C94.7181 27.499 94.3611 29.053 94.3611 30.817C94.3611 32.581 94.7181 34.156 95.4321 35.542C96.1881 36.928 97.2171 38.02 98.5191 38.818C99.8631 39.574 101.375 39.952 103.055 39.952ZM137.357 46.63C134.627 46.63 132.149 45.937 129.923 44.551C127.739 43.165 125.996 41.296 124.694 38.944C123.434 36.55 122.804 33.883 122.804 30.943C122.804 27.961 123.434 25.294 124.694 22.942C125.996 20.548 127.739 18.658 129.923 17.272C132.149 15.844 134.627 15.13 137.357 15.13C139.667 15.13 141.704 15.634 143.468 16.642C145.274 17.608 146.702 18.952 147.752 20.674C148.802 22.396 149.327 24.349 149.327 26.533V35.227C149.327 37.411 148.802 39.364 147.752 41.086C146.744 42.808 145.337 44.173 143.531 45.181C141.725 46.147 139.667 46.63 137.357 46.63ZM138.491 40.078C140.213 40.078 141.704 39.7 142.964 38.944C144.266 38.146 145.274 37.054 145.988 35.668C146.702 34.282 147.059 32.686 147.059 30.88C147.059 29.074 146.702 27.478 145.988 26.092C145.274 24.706 144.266 23.635 142.964 22.879C141.704 22.081 140.213 21.682 138.491 21.682C136.811 21.682 135.32 22.081 134.018 22.879C132.758 23.635 131.75 24.706 130.994 26.092C130.28 27.478 129.923 29.074 129.923 30.88C129.923 32.686 130.28 34.282 130.994 35.668C131.75 37.054 132.758 38.146 134.018 38.944C135.32 39.7 136.811 40.078 138.491 40.078ZM153.548 46H146.618V37.873L147.815 30.502L146.618 23.194V0.639998H153.548V46Z" fill="white"/>
<path d="M166.531 46.63C165.187 46.63 164.074 46.189 163.192 45.307C162.352 44.383 161.932 43.27 161.932 41.968C161.932 40.624 162.352 39.511 163.192 38.629C164.074 37.747 165.187 37.306 166.531 37.306C167.875 37.306 168.967 37.747 169.807 38.629C170.689 39.511 171.13 40.624 171.13 41.968C171.13 43.27 170.689 44.383 169.807 45.307C168.967 46.189 167.875 46.63 166.531 46.63Z" fill="black"/>
<path d="M191.922 46.63C189.36 46.63 187.071 46.063 185.055 44.929C183.081 43.795 181.527 42.241 180.393 40.267C179.301 38.251 178.755 35.941 178.755 33.337V15.76H185.685V33.022C185.685 34.492 185.916 35.752 186.378 36.802C186.882 37.81 187.596 38.587 188.52 39.133C189.486 39.679 190.62 39.952 191.922 39.952C193.938 39.952 195.471 39.364 196.521 38.188C197.613 36.97 198.159 35.248 198.159 33.022V15.76H205.089V33.337C205.089 35.983 204.522 38.314 203.388 40.33C202.296 42.304 200.763 43.858 198.789 44.992C196.815 46.084 194.526 46.63 191.922 46.63ZM212.12 46V15.76H219.05V46H212.12ZM215.585 10.216C214.409 10.216 213.422 9.817 212.624 9.019C211.868 8.221 211.49 7.234 211.49 6.058C211.49 4.882 211.868 3.895 212.624 3.097C213.422 2.299 214.409 1.9 215.585 1.9C216.803 1.9 217.79 2.299 218.546 3.097C219.302 3.895 219.68 4.882 219.68 6.058C219.68 7.234 219.302 8.221 218.546 9.019C217.79 9.817 216.803 10.216 215.585 10.216Z" fill="#B92727"/>
</svg>